<mxfile host="app.diagrams.net" modified="2023-12-06T03:17:07.280Z" agent="Mozilla/5.0 (Macintosh; Intel Mac OS X 10_15_7) AppleWebKit/537.36 (KHTML, like Gecko) Chrome/116.0.0.0 Safari/537.36" etag="b_Eackzi6n85wa2bdfVU" version="22.1.5" type="github">
  <diagram name="第 1 页" id="dsugi25yWP6TaqmEDvlr">
    <mxGraphModel dx="2261" dy="767" grid="1" gridSize="10" guides="1" tooltips="1" connect="1" arrows="1" fold="1" page="1" pageScale="1" pageWidth="827" pageHeight="1169" math="0" shadow="0">
      <root>
        <mxCell id="0" />
        <mxCell id="1" parent="0" />
        <mxCell id="33HVd7Q__RiwLzI_41YS-1" style="edgeStyle=orthogonalEdgeStyle;rounded=0;orthogonalLoop=1;jettySize=auto;html=1;entryX=0;entryY=0.5;entryDx=0;entryDy=0;" edge="1" parent="1" source="33HVd7Q__RiwLzI_41YS-3">
          <mxGeometry relative="1" as="geometry">
            <mxPoint x="670" y="90" as="targetPoint" />
          </mxGeometry>
        </mxCell>
        <mxCell id="33HVd7Q__RiwLzI_41YS-2" style="edgeStyle=orthogonalEdgeStyle;rounded=0;orthogonalLoop=1;jettySize=auto;html=1;entryX=0.5;entryY=1;entryDx=0;entryDy=0;" edge="1" parent="1" source="33HVd7Q__RiwLzI_41YS-3" target="33HVd7Q__RiwLzI_41YS-9">
          <mxGeometry relative="1" as="geometry">
            <Array as="points">
              <mxPoint x="575" y="140" />
              <mxPoint x="-100" y="140" />
            </Array>
          </mxGeometry>
        </mxCell>
        <mxCell id="33HVd7Q__RiwLzI_41YS-3" value="fetch_painter.py" style="rounded=0;whiteSpace=wrap;html=1;" vertex="1" parent="1">
          <mxGeometry x="530" y="65" width="90" height="50" as="geometry" />
        </mxCell>
        <mxCell id="33HVd7Q__RiwLzI_41YS-4" style="edgeStyle=orthogonalEdgeStyle;rounded=0;orthogonalLoop=1;jettySize=auto;html=1;entryX=1;entryY=0.5;entryDx=0;entryDy=0;" edge="1" parent="1" source="33HVd7Q__RiwLzI_41YS-7" target="33HVd7Q__RiwLzI_41YS-9">
          <mxGeometry relative="1" as="geometry" />
        </mxCell>
        <mxCell id="33HVd7Q__RiwLzI_41YS-5" style="edgeStyle=orthogonalEdgeStyle;rounded=0;orthogonalLoop=1;jettySize=auto;html=1;entryX=0;entryY=0.5;entryDx=0;entryDy=0;" edge="1" parent="1" source="33HVd7Q__RiwLzI_41YS-7" target="33HVd7Q__RiwLzI_41YS-11">
          <mxGeometry relative="1" as="geometry" />
        </mxCell>
        <mxCell id="33HVd7Q__RiwLzI_41YS-6" value="&lt;font style=&quot;font-size: 6px;&quot;&gt;取出所有item=&lt;br&gt;&#39;image&#39;放到redis中&lt;/font&gt;" style="edgeLabel;html=1;align=center;verticalAlign=middle;resizable=0;points=[];" vertex="1" connectable="0" parent="33HVd7Q__RiwLzI_41YS-5">
          <mxGeometry x="0.1147" y="1" relative="1" as="geometry">
            <mxPoint x="-6" y="-4" as="offset" />
          </mxGeometry>
        </mxCell>
        <mxCell id="33HVd7Q__RiwLzI_41YS-7" value="rocketmq_consume.py" style="rounded=0;whiteSpace=wrap;html=1;" vertex="1" parent="1">
          <mxGeometry x="80" y="65" width="130" height="50" as="geometry" />
        </mxCell>
        <mxCell id="33HVd7Q__RiwLzI_41YS-8" style="edgeStyle=orthogonalEdgeStyle;rounded=0;orthogonalLoop=1;jettySize=auto;html=1;" edge="1" parent="1">
          <mxGeometry relative="1" as="geometry">
            <mxPoint x="110" y="90" as="targetPoint" />
            <mxPoint x="-40" y="90.02325581395354" as="sourcePoint" />
          </mxGeometry>
        </mxCell>
        <mxCell id="33HVd7Q__RiwLzI_41YS-9" value="rocketmq" style="rounded=0;whiteSpace=wrap;html=1;" vertex="1" parent="1">
          <mxGeometry x="-160" y="60" width="120" height="60" as="geometry" />
        </mxCell>
        <mxCell id="33HVd7Q__RiwLzI_41YS-10" value="&lt;span style=&quot;color: rgb(0, 0, 0); font-family: Helvetica; font-size: 11px; font-style: normal; font-variant-ligatures: normal; font-variant-caps: normal; font-weight: 400; letter-spacing: normal; orphans: 2; text-align: center; text-indent: 0px; text-transform: none; widows: 2; word-spacing: 0px; -webkit-text-stroke-width: 0px; background-color: rgb(255, 255, 255); text-decoration-thickness: initial; text-decoration-style: initial; text-decoration-color: initial; float: none; display: inline !important;&quot;&gt;每30秒取一次数据&lt;/span&gt;" style="text;whiteSpace=wrap;html=1;" vertex="1" parent="1">
          <mxGeometry x="-20" y="65" width="130" height="40" as="geometry" />
        </mxCell>
        <mxCell id="33HVd7Q__RiwLzI_41YS-11" value="redis" style="rounded=0;whiteSpace=wrap;html=1;" vertex="1" parent="1">
          <mxGeometry x="340" y="60" width="120" height="60" as="geometry" />
        </mxCell>
        <mxCell id="33HVd7Q__RiwLzI_41YS-12" style="edgeStyle=orthogonalEdgeStyle;rounded=0;orthogonalLoop=1;jettySize=auto;html=1;entryX=1.027;entryY=0.5;entryDx=0;entryDy=0;entryPerimeter=0;" edge="1" parent="1" source="33HVd7Q__RiwLzI_41YS-3" target="33HVd7Q__RiwLzI_41YS-11">
          <mxGeometry relative="1" as="geometry" />
        </mxCell>
        <mxCell id="33HVd7Q__RiwLzI_41YS-13" value="获取item" style="text;html=1;align=center;verticalAlign=middle;resizable=0;points=[];autosize=1;strokeColor=none;fillColor=none;" vertex="1" parent="1">
          <mxGeometry x="460" y="60" width="70" height="30" as="geometry" />
        </mxCell>
        <mxCell id="33HVd7Q__RiwLzI_41YS-14" value="aria2" style="rounded=0;whiteSpace=wrap;html=1;" vertex="1" parent="1">
          <mxGeometry x="860" y="60" width="120" height="60" as="geometry" />
        </mxCell>
        <mxCell id="33HVd7Q__RiwLzI_41YS-15" style="edgeStyle=orthogonalEdgeStyle;rounded=0;orthogonalLoop=1;jettySize=auto;html=1;entryX=0.5;entryY=1;entryDx=0;entryDy=0;" edge="1" parent="1" source="33HVd7Q__RiwLzI_41YS-17" target="33HVd7Q__RiwLzI_41YS-3">
          <mxGeometry relative="1" as="geometry" />
        </mxCell>
        <mxCell id="33HVd7Q__RiwLzI_41YS-16" value="已经下载" style="edgeLabel;html=1;align=center;verticalAlign=middle;resizable=0;points=[];" vertex="1" connectable="0" parent="33HVd7Q__RiwLzI_41YS-15">
          <mxGeometry x="0.2197" y="-2" relative="1" as="geometry">
            <mxPoint as="offset" />
          </mxGeometry>
        </mxCell>
        <mxCell id="33HVd7Q__RiwLzI_41YS-17" value="seaweedFS查询已下载否" style="rhombus;whiteSpace=wrap;html=1;" vertex="1" parent="1">
          <mxGeometry x="670" y="30" width="140" height="120" as="geometry" />
        </mxCell>
        <mxCell id="33HVd7Q__RiwLzI_41YS-18" style="edgeStyle=orthogonalEdgeStyle;rounded=0;orthogonalLoop=1;jettySize=auto;html=1;entryX=-0.024;entryY=0.515;entryDx=0;entryDy=0;entryPerimeter=0;" edge="1" parent="1" source="33HVd7Q__RiwLzI_41YS-17" target="33HVd7Q__RiwLzI_41YS-14">
          <mxGeometry relative="1" as="geometry" />
        </mxCell>
        <mxCell id="33HVd7Q__RiwLzI_41YS-19" value="未下载" style="edgeLabel;html=1;align=center;verticalAlign=middle;resizable=0;points=[];" vertex="1" connectable="0" parent="33HVd7Q__RiwLzI_41YS-18">
          <mxGeometry x="0.0412" y="1" relative="1" as="geometry">
            <mxPoint y="-1" as="offset" />
          </mxGeometry>
        </mxCell>
      </root>
    </mxGraphModel>
  </diagram>
</mxfile>
